<?xml version="1.0" encoding="UTF-8"?>
<svg id="Layer_2" data-name="Layer 2" xmlns="http://www.w3.org/2000/svg" viewBox="0 0 190.98 190.98">
  <defs>
    <style>
      .cls-1 {
        fill: #fff;
      }

      .cls-2 {
        fill: #5fff00;
      }
    </style>
  </defs>
  <g id="Layer_1-2" data-name="Layer 1">
    <g>
      <path class="cls-1" d="M184.16,190.98h-68.21c-3.77,0-6.82-3.05-6.82-6.82v-68.21c0-3.77,3.05-6.82,6.82-6.82h68.21c3.77,0,6.82,3.05,6.82,6.82v68.21c0,3.77-3.05,6.82-6.82,6.82ZM122.77,177.34h54.57v-54.57h-54.57v54.57Z"/>
      <path class="cls-1" d="M40.92,190.98c-22.57,0-40.92-18.36-40.92-40.92s18.36-40.92,40.92-40.92,40.92,18.36,40.92,40.92-18.36,40.92-40.92,40.92ZM40.92,122.77c-15.04,0-27.28,12.24-27.28,27.28s12.24,27.28,27.28,27.28,27.28-12.24,27.28-27.28-12.24-27.28-27.28-27.28Z"/>
      <path class="cls-2" d="M136.42,81.85H54.57c-2.46,0-4.72-1.32-5.93-3.46s-1.18-4.76.09-6.87L89.66,3.29c1.32-2.2,3.58-3.29,5.83-3.29s4.51,1.09,5.83,3.29l40.94,68.23c1.27,2.11,1.3,4.73.09,6.87s-3.48,3.46-5.93,3.46ZM66.61,68.21h57.76l-28.88-48.13-28.88,48.13Z"/>
    </g>
  </g>
</svg>