<?xml version="1.0" encoding="UTF-8"?>
<svg id="Layer_2" data-name="Layer 2" xmlns="http://www.w3.org/2000/svg" viewBox="0 0 419.64 57.58">
  <defs>
    <style>
      .cls-1 {
        fill: #fff;
      }
    </style>
  </defs>
  <g id="Layer_1-2" data-name="Layer 1">
    <g>
      <path class="cls-1" d="M0,56.76V3.36h14.71l13.22,34.73L41,3.36h14.49v53.4h-11.05V17.92l-15.31,38.84h-3.66L10.01,17.92v38.84H0Z"/>
      <path class="cls-1" d="M60.57,37.64v-.6c0-12.25,8.89-20.24,20.61-20.24s20.54,7.84,20.54,20.01v.6c0,12.32-8.89,20.16-20.61,20.16s-20.54-7.77-20.54-19.94ZM90.74,37.49v-.52c0-7.47-3.58-11.95-9.56-11.95s-9.56,4.33-9.56,11.8v.6c0,7.47,3.51,11.95,9.56,11.95s9.56-4.48,9.56-11.87Z"/>
      <path class="cls-1" d="M103.52,37.64v-.6c0-12.25,8.89-20.24,20.61-20.24s20.54,7.84,20.54,20.01v.6c0,12.32-8.89,20.16-20.61,20.16s-20.54-7.77-20.54-19.94ZM133.69,37.49v-.52c0-7.47-3.59-11.95-9.56-11.95s-9.56,4.33-9.56,11.8v.6c0,7.47,3.51,11.95,9.56,11.95s9.56-4.48,9.56-11.87Z"/>
      <path class="cls-1" d="M148.85,56.76V17.7h10.76v6.27c2.01-3.96,6.27-7.17,12.77-7.17,7.69,0,13.14,4.63,13.14,15.09v24.87h-10.75v-23.3c0-5.3-2.16-7.84-6.94-7.84s-8.22,2.91-8.22,8.59v22.55h-10.76Z"/>
      <path class="cls-1" d="M201.88,56.76l-13.14-53.4h11.28l8.81,38.02,9.71-38.02h9.33l10.01,38.24,9.11-38.24h10.23l-13.14,53.4h-11.2l-10.08-37.94-10.23,37.94h-10.68Z"/>
      <path class="cls-1" d="M260.81,56.76V0h10.76v23.97c2.02-3.96,6.27-7.17,12.77-7.17,7.69,0,13.15,4.63,13.15,15.09v24.87h-10.76v-23.3c0-5.3-2.16-7.84-6.94-7.84s-8.22,2.91-8.22,8.59v22.55h-10.76Z"/>
      <path class="cls-1" d="M301.21,45.93c0-9.18,8.37-12.55,20.32-12.55h4.41v-1.57c0-4.56-1.49-7.17-6.35-7.17-4.26,0-6.27,2.16-6.65,5.53h-10.23c.6-9.26,8.06-13.37,17.55-13.37,4.78,0,8.66,1.12,11.73,3.29,3.06,2.16,4.63,5.9,4.63,11.2v25.47h-10.53v-4.71c-2.16,3.06-5.75,5.53-11.8,5.53-7.02,0-13.07-3.51-13.07-11.65ZM325.94,43.09v-3.29h-4.18c-6.28,0-9.93,1.34-9.93,5.53,0,2.76,1.72,4.7,5.67,4.7,4.78,0,8.44-2.69,8.44-6.94Z"/>
      <path class="cls-1" d="M343.19,56.76V0h10.76v56.76h-10.76Z"/>
      <path class="cls-1" d="M358.43,37.71v-.6c0-12.4,8.74-20.31,20.09-20.31,10.01,0,19.04,5.9,19.04,19.87v2.99h-28.15c.3,6.5,3.81,10.23,9.71,10.23,5,0,7.47-2.16,8.14-5.45h10.23c-1.27,8.36-7.99,13.14-18.67,13.14-11.8,0-20.39-7.39-20.39-19.87ZM387.03,33.01c-.37-5.9-3.44-8.73-8.51-8.73s-8.14,3.28-8.96,8.73h17.48Z"/>
      <path class="cls-1" d="M405.35,1.23c1.44-.83,3.03-1.23,4.76-1.23s3.37.41,4.83,1.23c1.45.82,2.6,1.94,3.44,3.35.84,1.41,1.26,2.98,1.26,4.72s-.42,3.26-1.26,4.67c-.84,1.41-1.98,2.52-3.44,3.33-1.46.81-3.07,1.21-4.83,1.21s-3.32-.4-4.76-1.21c-1.44-.81-2.58-1.91-3.42-3.3-.84-1.4-1.26-2.95-1.26-4.65s.42-3.31,1.26-4.74c.84-1.42,1.98-2.55,3.42-3.37ZM413.84,2.93c-1.1-.63-2.34-.94-3.73-.94s-2.58.31-3.68.94c-1.1.63-1.97,1.52-2.6,2.65-.63,1.13-.95,2.38-.95,3.77s.32,2.58.95,3.68,1.5,1.97,2.6,2.6c1.1.63,2.33.95,3.68.95s2.62-.31,3.73-.95c1.1-.63,1.97-1.5,2.6-2.62.63-1.12.95-2.35.95-3.7s-.32-2.63-.95-3.75c-.63-1.12-1.5-1.99-2.6-2.62ZM413.37,5.16c.71.59,1.06,1.38,1.06,2.38,0,.68-.18,1.28-.55,1.79-.37.52-.89.89-1.56,1.13l2.21,3.88h-2.43l-1.94-3.44h-1.41v3.44h-2.21V4.28h3.97c1.2,0,2.16.29,2.87.88ZM410.38,9.08c.53,0,.96-.14,1.28-.42.32-.28.49-.65.49-1.13s-.15-.83-.47-1.08c-.31-.25-.74-.38-1.3-.38h-1.63v3h1.63Z"/>
      <path class="cls-1" d="M415.46,51.61c0,.93-.23,1.81-.71,2.6-.45.79-1.1,1.41-1.92,1.87-.82.45-1.7.68-2.69.68s-1.87-.23-2.66-.68c-.82-.45-1.44-1.07-1.92-1.84-.45-.79-.71-1.67-.71-2.6,0-.99.25-1.87.71-2.66.48-.79,1.1-1.44,1.92-1.9.79-.45,1.67-.68,2.66-.68s1.87.23,2.69.68c.82.45,1.47,1.1,1.92,1.9.48.76.71,1.64.71,2.63Z"/>
    </g>
  </g>
</svg>